<?xml version="1.0" standalone="no"?>
<!DOCTYPE svg PUBLIC "-//W3C//DTD SVG 20010904//EN"
 "http://www.w3.org/TR/2001/REC-SVG-20010904/DTD/svg10.dtd">
<svg version="1.0" xmlns="http://www.w3.org/2000/svg"
 width="300.000000pt" height="300.000000pt" viewBox="0 0 300.000000 300.000000"
 preserveAspectRatio="xMidYMid meet">
<metadata>
Created by potrace 1.10, written by Peter Selinger 2001-2011
</metadata>
<g transform="translate(0.000000,300.000000) scale(0.100000,-0.100000)"
fill="#000000" stroke="none">
<path d="M1230 2733 c-124 -113 -124 -113 -58 -115 29 0 63 0 75 1 17 1 20 -3
16 -20 -3 -11 -16 -25 -29 -30 -38 -14 -28 -19 36 -19 33 0 60 4 60 10 0 6 -9
10 -20 10 -36 0 -19 36 19 41 38 6 39 29 1 29 -25 0 -30 3 -26 18 6 20 36 151
36 158 0 14 -25 -5 -110 -83z m52 -27 l-15 -64 -55 1 -55 1 69 63 c38 34 70
63 70 63 1 0 -6 -29 -14 -64z"/>
<path d="M1473 2800 c-94 -57 -79 -200 21 -200 71 0 141 99 117 163 -21 55
-82 72 -138 37z m98 -35 c6 -32 -12 -107 -31 -130 -15 -18 -61 -20 -78 -3 -15
15 -16 67 -1 105 17 46 40 64 73 61 25 -2 32 -8 37 -33z"/>
<path d="M1725 2726 c-55 -52 -98 -97 -94 -100 3 -3 35 -7 72 -8 51 -2 66 -6
62 -16 -3 -8 -5 -18 -5 -23 0 -5 -9 -9 -20 -9 -11 0 -20 -4 -20 -10 0 -5 25
-10 55 -10 30 0 55 5 55 10 0 6 -7 10 -15 10 -8 0 -15 9 -15 20 0 15 7 20 29
20 16 0 31 6 35 15 4 11 -2 15 -24 15 -34 0 -34 -5 -15 80 16 74 18 100 8 100
-5 0 -53 -43 -108 -94z m62 -23 l-11 -62 -53 1 c-29 1 -53 3 -53 5 0 5 124
122 127 119 1 -1 -3 -30 -10 -63z"/>
<path d="M2665 2413 c-36 -9 -83 -52 -96 -88 -11 -29 -18 -35 -42 -35 -82 0
-161 -117 -131 -194 15 -40 89 0 131 69 9 16 10 12 2 -18 -6 -22 -8 -45 -5
-53 8 -21 49 -17 80 7 36 28 33 45 -4 18 -16 -13 -32 -20 -35 -17 -9 9 43 239
61 265 13 21 22 24 49 20 30 -5 55 6 55 25 0 8 -32 9 -65 1z m-115 -157 c0
-42 -76 -146 -106 -146 -31 0 -4 119 33 148 23 17 73 16 73 -2z"/>
<path d="M543 2360 c-47 -11 -78 -34 -93 -70 -7 -17 -10 -33 -8 -36 12 -11 37
10 43 38 5 21 16 34 38 43 40 17 48 12 37 -23 -5 -15 -16 -62 -26 -105 -13
-62 -21 -81 -41 -94 -24 -16 -28 -16 -54 -1 -25 15 -29 15 -40 1 -16 -18 3
-33 43 -33 66 0 110 50 130 148 l13 62 53 -94 c28 -52 52 -100 52 -106 0 -6 8
-10 17 -8 12 2 21 21 30 68 39 197 38 195 84 195 18 0 34 6 37 13 7 22 -55 14
-84 -11 -21 -18 -32 -44 -48 -110 l-21 -87 -57 107 c-31 59 -60 108 -65 109
-4 1 -23 -2 -40 -6z"/>
<path d="M1480 2361 c-62 -9 -89 -27 -106 -68 -9 -19 -13 -37 -11 -39 8 -9 37
8 37 22 0 18 41 61 66 68 21 6 21 5 11 -46 -6 -33 -18 -60 -31 -70 -19 -16
-19 -18 -3 -18 14 0 16 -6 11 -27 -29 -130 -42 -153 -85 -153 -17 0 -32 6 -36
15 -5 14 -8 14 -25 -1 -18 -18 -18 -18 4 -31 26 -14 71 -8 105 14 33 22 61 72
74 131 11 52 11 52 50 52 21 0 39 5 39 10 0 6 -17 10 -39 10 l-38 0 13 56 c7
31 15 58 18 61 12 12 68 -10 76 -30 8 -21 8 -21 19 6 6 16 11 32 11 36 0 10
-98 11 -160 2z"/>
<path d="M1085 2320 c-4 -20 -13 -30 -25 -30 -10 0 -22 -4 -25 -10 -3 -6 4
-10 18 -10 l24 0 -14 -61 c-20 -88 -15 -123 18 -127 18 -2 36 6 55 23 22 20
24 25 9 20 -63 -22 -63 -24 -43 81 11 63 12 64 44 64 18 0 36 5 39 10 4 6 -8
10 -30 10 -35 0 -36 1 -30 30 6 26 4 30 -13 30 -15 0 -22 -9 -27 -30z"/>
<path d="M903 2288 c-18 -5 -44 -23 -58 -42 -70 -92 -40 -185 51 -162 65 17
122 123 93 174 -18 32 -45 41 -86 30z m45 -73 c3 -63 -25 -115 -63 -115 -29 0
-41 31 -32 87 9 54 33 85 65 81 25 -3 27 -7 30 -53z"/>
<path d="M1720 2286 c-71 -23 -118 -139 -75 -186 39 -43 123 -9 155 63 24 51
25 76 5 104 -19 27 -44 33 -85 19z m48 -71 c3 -63 -25 -115 -63 -115 -29 0
-41 31 -32 87 9 54 33 85 65 81 25 -3 27 -7 30 -53z"/>
<path d="M2160 2291 c-32 -13 -60 -36 -60 -50 0 -10 6 -8 23 7 30 29 49 28 42
0 -29 -133 -35 -160 -35 -164 0 -2 9 -4 20 -4 13 0 21 9 26 28 13 61 73 152
100 152 14 0 16 -7 9 -47 -5 -27 -9 -66 -9 -88 -1 -33 3 -41 20 -43 22 -3 74
32 74 50 0 7 -11 1 -25 -12 -14 -13 -28 -21 -31 -17 -4 4 -2 32 5 63 15 75 14
124 -1 125 -39 4 -74 -20 -110 -76 l-20 -30 7 30 c3 17 8 38 11 47 6 20 -24
39 -46 29z"/>
<path d="M1856 2269 c-14 -11 -26 -25 -26 -31 0 -7 10 -2 23 10 21 20 47 29
47 18 0 -3 -7 -37 -15 -77 -9 -40 -13 -80 -10 -91 13 -39 71 -14 111 48 26 39
10 38 -20 -1 -15 -19 -34 -35 -42 -35 -17 0 -17 -7 1 81 9 40 13 79 11 86 -8
20 -50 16 -80 -8z"/>
<path d="M2024 2263 c-3 -16 -10 -38 -15 -51 -5 -13 -7 -28 -4 -33 3 -5 2 -23
-3 -41 -12 -43 -6 -58 22 -58 26 0 76 35 76 52 0 7 -11 1 -25 -12 -14 -13 -28
-20 -31 -17 -7 6 8 114 22 165 5 18 2 22 -15 22 -14 0 -22 -8 -27 -27z"/>
<path d="M1211 2011 c-11 -7 -6 -21 27 -67 l41 -58 -28 -12 c-42 -18 -108 -81
-138 -132 -21 -35 -52 -131 -53 -162 0 -3 194 -5 430 -5 280 0 430 3 430 10 0
29 -31 121 -54 158 -29 50 -95 113 -137 131 l-28 12 40 57 c36 51 43 77 19 77
-4 0 -23 -23 -41 -52 -19 -28 -37 -55 -40 -60 -4 -6 -24 -5 -49 2 -53 14 -233
15 -280 0 -19 -5 -38 -10 -41 -10 -3 0 -23 27 -43 60 -21 33 -38 60 -39 60 -1
0 -8 -4 -16 -9z m421 -132 c29 -6 57 -14 61 -19 4 -4 -23 -22 -60 -39 -82 -39
-103 -57 -103 -86 0 -30 33 -58 110 -94 l65 -30 -215 0 -215 0 78 41 c43 22
82 49 88 60 16 31 -14 66 -87 100 -76 35 -84 45 -47 54 15 3 42 10 58 14 45
12 207 12 267 -1z m-212 -146 c0 -12 -150 -97 -158 -89 -12 13 11 35 62 57 31
13 56 27 56 31 0 4 -27 19 -60 34 -41 18 -60 32 -60 45 0 15 12 11 80 -24 44
-23 80 -47 80 -54z m300 77 c0 -6 -30 -25 -67 -44 l-68 -34 68 -32 c37 -18 67
-38 67 -46 0 -8 -2 -14 -5 -14 -18 0 -165 83 -165 93 0 13 150 96 163 90 4 -2
7 -8 7 -13z m-467 -37 c11 -13 26 -23 34 -23 23 0 14 -30 -12 -42 -29 -13 -43
-54 -26 -71 22 -22 10 -27 -64 -27 -74 0 -75 0 -75 25 0 56 107 212 118 174 3
-8 14 -24 25 -36z m568 -19 c32 -47 62 -127 52 -138 -4 -3 -42 -6 -85 -6 -75
0 -78 1 -68 19 17 33 11 59 -19 81 l-30 21 42 43 c49 50 61 48 108 -20z"/>
<path d="M573 1710 c-27 -11 -63 -66 -63 -96 0 -38 31 -60 232 -168 215 -116
222 -117 267 -60 23 29 27 64 11 94 -8 15 -408 242 -422 239 -1 0 -13 -4 -25
-9z m70 -48 c7 -5 55 -32 107 -60 233 -124 235 -125 238 -159 3 -25 -2 -35
-22 -48 -25 -16 -28 -16 -116 30 -50 25 -112 58 -138 73 -26 15 -60 34 -77 42
-64 31 -85 51 -85 80 0 16 6 35 14 43 16 15 59 15 79 -1z"/>
<path d="M2343 1698 c-21 -11 -105 -57 -188 -102 -82 -44 -159 -86 -170 -91
-11 -6 -24 -23 -30 -38 -12 -36 18 -96 58 -115 26 -13 34 -10 132 42 229 123
309 168 317 180 16 23 8 75 -17 104 -33 39 -57 44 -102 20z m80 -38 c8 -7 13
-67 6 -74 -19 -17 -381 -206 -393 -206 -43 0 -60 85 -21 105 11 5 65 35 120
65 211 115 240 129 260 123 11 -3 24 -9 28 -13z"/>
<path d="M1062 1170 l3 -350 33 -32 c28 -29 39 -33 82 -32 l50 0 0 -131 c0
-125 1 -133 23 -153 30 -28 95 -30 127 -4 22 18 23 24 21 153 l-2 134 91 0 90
0 0 -137 c0 -130 1 -138 22 -152 35 -25 100 -21 126 7 20 21 22 34 22 156 l0
132 34 -6 c44 -9 96 15 119 54 15 26 17 67 17 370 l0 341 -430 0 -431 0 3
-350z m816 -21 c-3 -314 -4 -331 -22 -345 -11 -8 -33 -14 -49 -14 -30 0 -67
-16 -79 -34 -4 -6 -8 -64 -8 -128 0 -95 -3 -120 -17 -133 -18 -19 -71 -14 -85
8 -4 6 -8 63 -8 125 0 106 -1 114 -25 137 -21 22 -33 25 -95 25 -62 0 -74 -3
-95 -25 -24 -23 -25 -30 -25 -144 0 -66 -3 -122 -7 -124 -5 -3 -21 -7 -38 -11
-54 -11 -58 0 -64 146 -6 129 -7 133 -31 145 -14 7 -38 13 -55 13 -42 1 -63
20 -74 70 -7 33 -9 544 -2 608 1 9 86 12 391 12 l391 0 -3 -331z"/>
<path d="M554 1415 c-31 -75 -4 -255 39 -255 11 0 9 11 -9 47 -28 55 -32 144
-9 200 18 42 18 43 4 43 -5 0 -17 -16 -25 -35z"/>
<path d="M2407 1413 c23 -55 20 -153 -5 -205 -22 -42 -22 -56 -3 -43 17 10 40
71 47 124 7 58 -19 161 -41 161 -12 0 -12 -6 2 -37z"/>
<path d="M694 1354 c-9 -49 1 -114 22 -133 16 -15 16 -15 9 4 -22 59 -26 88
-16 117 13 38 14 48 1 48 -5 0 -12 -16 -16 -36z"/>
<path d="M2266 1373 c15 -37 16 -91 0 -121 -20 -39 -20 -48 -1 -32 26 22 38
81 26 128 -7 23 -17 42 -22 42 -7 0 -8 -7 -3 -17z"/>
<path d="M730 1175 c-202 -106 -225 -125 -213 -175 8 -33 52 -80 76 -80 17 0
147 63 357 173 78 41 97 70 80 122 -14 41 -44 65 -80 64 -14 -1 -113 -47 -220
-104z m261 39 c21 -35 21 -36 3 -54 -11 -10 -99 -59 -197 -110 -194 -100 -224
-107 -241 -57 -7 19 -7 33 0 44 6 9 91 57 190 107 98 50 181 94 182 99 9 19
42 4 63 -29z"/>
<path d="M1983 1258 c-41 -46 -50 -96 -20 -125 22 -21 404 -213 424 -213 26 0
71 42 79 74 10 41 -13 82 -54 100 -21 9 -111 54 -201 101 -91 47 -175 85 -186
85 -12 0 -31 -10 -42 -22z m73 -17 c5 -5 88 -48 184 -97 96 -49 178 -93 182
-99 12 -16 9 -60 -4 -73 -23 -23 -61 -11 -236 79 -201 104 -202 104 -202 131
0 45 49 84 76 59z"/>
</g>
</svg>
